<svg xmlns="http://www.w3.org/2000/svg" viewBox="0 0 900 1200" role="img" aria-label="Hero love memory placeholder">
  <defs>
    <linearGradient id="hero" x1="0" x2="1" y1="0" y2="1">
      <stop offset="0%" stop-color="#f9e4ee"/>
      <stop offset="35%" stop-color="#ceb0ff"/>
      <stop offset="100%" stop-color="#6c3b7f"/>
    </linearGradient>
  </defs>
  <rect width="900" height="1200" fill="url(#hero)"/>
  <circle cx="450" cy="220" r="180" fill="rgba(255,255,255,0.18)"/>
  <path d="M245 960c46-170 134-260 205-260s154 90 202 260H245Z" fill="#fff5f9" opacity="0.88"/>
  <circle cx="450" cy="350" r="138" fill="#f5d1c2"/>
  <path d="M310 460c38-115 93-170 214-170 110 0 186 64 218 170l-65 28c-27-60-80-95-154-95-78 0-129 40-155 103l-58-36Z" fill="#2a1d3a"/>
  <path d="M325 600c69 30 129 43 175 43 72 0 124-17 191-58l30 42c-70 86-155 128-229 128-82 0-150-39-209-120l42-35Z" fill="#f6d2e0"/>
  <text x="450" y="1060" text-anchor="middle" font-size="62" font-family="Georgia, serif" fill="#ffffff" letter-spacing="5">Forever Yours</text>
</svg>
