<svg xmlns="http://www.w3.org/2000/svg" viewBox="0 0 900 1200" role="img" aria-label="Photo 3 placeholder">
  <defs>
    <linearGradient id="bg3" x1="0" x2="1" y1="0" y2="1">
      <stop offset="0%" stop-color="#d9f0ff"/>
      <stop offset="50%" stop-color="#b8b5ff"/>
      <stop offset="100%" stop-color="#5f5bc4"/>
    </linearGradient>
  </defs>
  <rect width="900" height="1200" fill="url(#bg3)"/>
  <circle cx="450" cy="285" r="180" fill="rgba(255,255,255,0.2)"/>
  <path d="M260 960c58-170 146-270 190-270 110 0 170 102 200 270H260Z" fill="#eef8ff" opacity="0.88"/>
  <circle cx="450" cy="400" r="118" fill="#f4c9bc"/>
  <path d="M340 502c30-108 108-175 201-175 92 0 168 61 200 162l-56 28c-34-66-88-105-143-105-79 0-136 52-165 132l-37-42Z" fill="#202a4c"/>
  <path d="M322 610c68 30 126 44 166 44 42 0 103-12 165-46l34 44c-63 72-136 110-199 110-64 0-132-34-186-106l20-46Z" fill="#f3e7ff"/>
  <text x="450" y="1080" text-anchor="middle" font-size="64" font-family="Georgia, serif" fill="#ffffff" letter-spacing="6">Photo 3</text>
</svg>
